<svg width="32" height="32" viewBox="0 0 32 32" fill="none" xmlns="http://www.w3.org/2000/svg">
<path fill-rule="evenodd" clip-rule="evenodd" d="M9 8V4.58579L11.5858 2H20.4142L23 4.58579V8H20V5H12V8H9Z" fill="black" fill-opacity="0.07"/>
<g filter="url(#filter0_d_122_45)">
<path d="M3 7H29V27C29 27.5523 28.5523 28 28 28H4C3.44772 28 3 27.5523 3 27V7Z" fill="white" shape-rendering="crispEdges"/>
<path d="M3 6.5H2.5V7V27C2.5 27.8284 3.17157 28.5 4 28.5H28C28.8284 28.5 29.5 27.8284 29.5 27V7V6.5H29H3Z" stroke="url(#paint0_linear_122_45)" shape-rendering="crispEdges"/>
</g>
<rect x="3" y="7" width="26" height="10" fill="#FBFBF9"/>
<path d="M10 5V7H12V5H20V7H22V5L20 3H12L10 5Z" fill="white"/>
<mask id="path-6-outside-1_122_45" maskUnits="userSpaceOnUse" x="12" y="3" width="8" height="3" fill="black">
<rect fill="white" x="12" y="3" width="8" height="3"/>
<path d="M12 3H20V5H12V3Z"/>
</mask>
<path d="M12 3H20V5H12V3Z" fill="#E9E9E9"/>
<path d="M20 4H12V6H20V4Z" fill="black" fill-opacity="0.14" mask="url(#path-6-outside-1_122_45)"/>
<mask id="mask0_122_45" style="mask-type:alpha" maskUnits="userSpaceOnUse" x="3" y="14" width="26" height="14">
<rect x="3" y="14" width="26" height="14" fill="#D9D9D9"/>
</mask>
<g mask="url(#mask0_122_45)">
<path d="M23.548 28.1964C23.548 26.2021 22.7557 24.2894 21.3455 22.8792C19.9353 21.469 18.0226 20.6767 16.0283 20.6767C14.0339 20.6767 12.1212 21.469 10.711 22.8792C9.3008 24.2894 8.50854 26.2021 8.50854 28.1964H10.657C10.6573 26.7721 11.2234 25.4062 12.2306 24.3991C13.2379 23.3921 14.6039 22.8263 16.0283 22.8263C17.4526 22.8263 18.8186 23.3921 19.8259 24.3991C20.8332 25.4062 21.3992 26.7721 21.3995 28.1964" fill="black" fill-opacity="0.1"/>
<path d="M15.9745 20.6873C13.0434 20.6873 10.657 23.0738 10.657 26.0048C10.657 28.9359 13.0434 31.3223 15.9745 31.3223C18.9055 31.3223 21.292 28.9359 21.292 26.0048C21.292 23.0738 18.9055 20.6873 15.9745 20.6873Z" fill="url(#paint1_radial_122_45)"/>
<path d="M20.51 26.0285C20.51 26.6229 20.393 27.2114 20.1655 27.7606C19.938 28.3097 19.6046 28.8087 19.1843 29.229C18.7641 29.6493 18.2651 29.9826 17.716 30.2101C17.1668 30.4376 16.5783 30.5546 15.9839 30.5546C15.3895 30.5546 14.801 30.4376 14.2518 30.2101C13.7027 29.9826 13.2037 29.6493 12.7834 29.229C12.3631 28.8087 12.0298 28.3097 11.8023 27.7606C11.5748 27.2114 11.4578 26.6229 11.4578 26.0285C11.4578 25.4341 11.5748 24.8456 11.8023 24.2964C12.0298 23.7473 12.3631 23.2483 12.7834 22.8281C13.2037 22.4078 13.7027 22.0744 14.2518 21.8469C14.801 21.6195 15.3895 21.5024 15.9839 21.5024C16.5783 21.5024 17.1668 21.6195 17.716 21.8469C18.2651 22.0744 18.7641 22.4078 19.1843 22.8281C19.6046 23.2483 19.938 23.7473 20.1655 24.2964C20.393 24.8456 20.51 25.4341 20.51 26.0285Z" fill="url(#paint2_radial_122_45)"/>
<path d="M26.7708 20.6767C25.8353 18.7944 24.4229 17.19 22.6745 16.0233C20.926 14.8567 18.9024 14.1685 16.8052 14.0272C14.708 13.8859 12.6103 14.2966 10.7212 15.2182C8.83206 16.1398 7.21734 17.5403 6.03784 19.2801L10.8719 27.6592C10.6207 26.8608 10.5596 26.0146 10.6935 25.1883C10.8274 24.362 11.1525 23.5784 11.643 22.9001C12.1335 22.2218 12.7757 21.6675 13.5185 21.2814C14.2612 20.8954 15.0839 20.6883 15.9209 20.6767" fill="url(#paint3_radial_122_45)"/>
<path d="M6.03781 19.2802C4.86961 21.0228 4.17738 23.0406 4.02981 25.1333C3.88223 27.2261 4.28444 29.321 5.19652 31.2103C6.1086 33.0997 7.49885 34.7176 9.22933 35.9037C10.9598 37.0899 12.9703 37.8029 15.0615 37.972L20.1104 29.3781C19.5001 30.1178 18.7029 30.6807 17.8015 31.0082C16.9002 31.3357 15.9276 31.4159 14.9848 31.2405C14.0419 31.0651 13.1633 30.6404 12.44 30.0107C11.7168 29.3809 11.1753 28.569 10.8719 27.6593" fill="url(#paint4_radial_122_45)"/>
<path d="M15.0615 37.972C17.1755 38.1319 19.2941 37.7303 21.2029 36.808C23.1118 35.8857 24.743 34.4754 25.9315 32.7199C27.12 30.9644 27.8236 28.926 27.971 26.8112C28.1184 24.6963 27.7043 22.5801 26.7708 20.6767H15.9209C16.9278 20.6813 17.9132 20.9689 18.7645 21.5066C19.6159 22.0443 20.2989 22.8105 20.7357 23.7177C21.1726 24.625 21.3456 25.6368 21.235 26.6376C21.1244 27.6384 20.7348 28.5881 20.1105 29.3781" fill="url(#paint5_radial_122_45)"/>
<path opacity="0.075" d="M6.03784 19.2802L10.8719 27.6593C10.5139 26.4542 10.5899 25.1617 11.0868 24.0068L6.25269 18.9579" fill="black"/>
<path opacity="0.05" d="M26.7708 20.6767H15.9209C16.7277 20.6804 17.5233 20.8658 18.2486 21.2192C18.9739 21.5725 19.6103 22.0847 20.1105 22.7178L26.9856 20.999" fill="black"/>
</g>
<defs>
<filter id="filter0_d_122_45" x="2" y="6" width="28" height="24" filterUnits="userSpaceOnUse" color-interpolation-filters="sRGB">
<feFlood flood-opacity="0" result="BackgroundImageFix"/>
<feColorMatrix in="SourceAlpha" type="matrix" values="0 0 0 0 0 0 0 0 0 0 0 0 0 0 0 0 0 0 127 0" result="hardAlpha"/>
<feOffset dy="1"/>
<feComposite in2="hardAlpha" operator="out"/>
<feColorMatrix type="matrix" values="0 0 0 0 0 0 0 0 0 0 0 0 0 0 0 0 0 0 0.03 0"/>
<feBlend mode="normal" in2="BackgroundImageFix" result="effect1_dropShadow_122_45"/>
<feBlend mode="normal" in="SourceGraphic" in2="effect1_dropShadow_122_45" result="shape"/>
</filter>
<linearGradient id="paint0_linear_122_45" x1="3" y1="7" x2="3" y2="28" gradientUnits="userSpaceOnUse">
<stop stop-opacity="0.07"/>
<stop offset="0.0988281" stop-opacity="0.1"/>
</linearGradient>
<radialGradient id="paint1_radial_122_45" cx="0" cy="0" r="1" gradientUnits="userSpaceOnUse" gradientTransform="translate(15.9745 20.6873) scale(10.635)">
<stop stop-color="#F6F0EE"/>
<stop offset="1" stop-color="#DDDDDD"/>
</radialGradient>
<radialGradient id="paint2_radial_122_45" cx="0" cy="0" r="1" gradientUnits="userSpaceOnUse" gradientTransform="translate(15.9839 21.5024) scale(9.05226 9.05226)">
<stop offset="0.1" stop-color="#7FB3DF"/>
<stop offset="0.9" stop-color="#0F5B94"/>
</radialGradient>
<radialGradient id="paint3_radial_122_45" cx="0" cy="0" r="1" gradientUnits="userSpaceOnUse" gradientTransform="translate(16.4043 14) scale(10.3665 6.82962)">
<stop stop-color="#F06B59"/>
<stop offset="1" stop-color="#DF2227"/>
</radialGradient>
<radialGradient id="paint4_radial_122_45" cx="0" cy="0" r="1" gradientUnits="userSpaceOnUse" gradientTransform="translate(14.4718 24.8877) scale(12.2439 14.2058)">
<stop offset="0.65" stop-color="#4CB749"/>
<stop offset="1" stop-color="#388B41"/>
</radialGradient>
<radialGradient id="paint5_radial_122_45" cx="0" cy="0" r="1" gradientUnits="userSpaceOnUse" gradientTransform="translate(19.7194 25.0091) scale(10.3508 13.8637)">
<stop offset="0.6" stop-color="#FCD209"/>
<stop offset="0.7" stop-color="#F7C616"/>
<stop offset="1" stop-color="#BC821E"/>
</radialGradient>
</defs>
</svg>