<svg width="32" height="32" viewBox="0 0 32 32" fill="none" xmlns="http://www.w3.org/2000/svg">
<g clip-path="url(#clip0_219_154)">
<path d="M13.9524 6.90829L12.1254 0.0900546C14.6714 -0.530018 17.3291 -0.530018 19.8751 0.0900543L18.0481 6.90829C16.6998 6.60457 15.3007 6.60457 13.9524 6.90829Z" fill="#ACACAC" stroke="#ECECEC" stroke-width="0.75"/>
<path d="M18.7725 7.1024L20.5995 0.284166C23.1144 1.02015 25.416 2.34902 27.3109 4.159L22.3196 9.15029C21.3037 8.2131 20.0921 7.51354 18.7725 7.1024Z" fill="#878787" stroke="#ECECEC" stroke-width="0.75"/>
<path d="M22.8499 9.6806L27.8412 4.68931C29.6512 6.58414 30.9801 8.88581 31.7161 11.4007L24.8978 13.2276C24.4867 11.9081 23.7871 10.6964 22.8499 9.6806Z" fill="#E6E6E6" stroke="#ECECEC" stroke-width="0.75"/>
<path d="M25.0919 13.9521L31.9101 12.1252C32.5302 14.6711 32.5302 17.3289 31.9101 19.8748L25.0919 18.0479C25.3956 16.6996 25.3956 15.3005 25.0919 13.9521Z" fill="#E6E6E6" stroke="#ECECEC" stroke-width="0.75"/>
<path d="M24.8978 18.7723L31.7161 20.5993C30.9801 23.1142 29.6512 25.4158 27.8412 27.3107L22.8499 22.3194C23.7871 21.3035 24.4867 20.0919 24.8978 18.7723Z" fill="#E6E6E6" stroke="#ECECEC" stroke-width="0.75"/>
<path d="M27.3109 27.841C25.416 29.651 23.1143 30.9798 20.5995 31.7158L18.7725 24.8976C20.0921 24.4865 21.3037 23.7869 22.3196 22.8497L27.3109 27.841Z" fill="#E6E6E6" stroke="#ECECEC" stroke-width="0.75"/>
<path d="M18.0481 25.0917L19.8751 31.9099C17.3291 32.53 14.6714 32.53 12.1254 31.9099L13.9524 25.0917C15.3007 25.3954 16.6998 25.3954 18.0481 25.0917Z" fill="#E6E6E6" stroke="#ECECEC" stroke-width="0.75"/>
<path d="M13.228 24.8976L11.401 31.7158C8.88612 30.9798 6.58444 29.651 4.68962 27.841L9.68091 22.8497C10.6967 23.7869 11.9084 24.4865 13.228 24.8976Z" fill="#E4E4E4" stroke="#ECECEC" stroke-width="0.75"/>
<path d="M4.1593 27.3107C2.34932 25.4158 1.02045 23.1142 0.284471 20.5993L7.1027 18.7723C7.51384 20.0919 8.2134 21.3035 9.15059 22.3194L4.1593 27.3107Z" fill="#DFDFDF" stroke="#ECECEC" stroke-width="0.75"/>
<path d="M6.90853 18.0479L0.0902984 19.8748C-0.529774 17.3289 -0.529774 14.6711 0.0902987 12.1252L6.90853 13.9521C6.60482 15.3005 6.60482 16.6996 6.90853 18.0479Z" fill="#D9D9D9" stroke="#ECECEC" stroke-width="0.75"/>
<path d="M7.1027 13.2277L0.284471 11.4007C1.02045 8.88581 2.34932 6.58414 4.1593 4.68931L9.15059 9.6806C8.2134 10.6964 7.51384 11.9081 7.1027 13.2277Z" fill="#D0D0D0" stroke="#ECECEC" stroke-width="0.75"/>
<path d="M9.68066 9.15029L4.68937 4.15899C6.5842 2.34902 8.88587 1.02014 11.4008 0.284166L13.2277 7.1024C11.9082 7.51354 10.6965 8.2131 9.68066 9.15029Z" fill="#BFBFBF" stroke="#ECECEC" stroke-width="0.75"/>
</g>
<defs>
<clipPath id="clip0_219_154">
<rect width="32" height="32" fill="white"/>
</clipPath>
</defs>
</svg>